<mxfile host="app.diagrams.net" modified="2023-06-14T02:31:57.534Z" agent="Mozilla/5.0 (Macintosh; Intel Mac OS X 10_15_7) AppleWebKit/537.36 (KHTML, like Gecko) Chrome/114.0.0.0 Safari/537.36 Edg/114.0.1823.37" etag="tXvOIk4ChE7fPjCJg15O" version="21.3.2" type="github">
  <diagram name="第 1 页" id="-28VQTXDqfuDYZ_im5ft">
    <mxGraphModel dx="1026" dy="585" grid="1" gridSize="10" guides="1" tooltips="1" connect="1" arrows="1" fold="1" page="1" pageScale="1" pageWidth="827" pageHeight="1169" math="0" shadow="0">
      <root>
        <mxCell id="0" />
        <mxCell id="1" parent="0" />
        <mxCell id="J7rZFFFMci6jhTMXJYGZ-1" value="" style="rounded=1;whiteSpace=wrap;html=1;fillColor=#fff2cc;strokeColor=#d6b656;" parent="1" vertex="1">
          <mxGeometry x="260" y="860" width="120" height="60" as="geometry" />
        </mxCell>
        <mxCell id="wTJd-Y5oXOGYDvmJ6Plj-7" value="" style="shape=image;html=1;verticalAlign=top;verticalLabelPosition=bottom;labelBackgroundColor=#ffffff;imageAspect=0;aspect=fixed;image=https://cdn1.iconfinder.com/data/icons/business-and-finance-20/200/vector_65_02-128.png" vertex="1" parent="1">
          <mxGeometry x="200" y="440" width="70" height="70" as="geometry" />
        </mxCell>
        <mxCell id="wTJd-Y5oXOGYDvmJ6Plj-12" style="rounded=0;orthogonalLoop=1;jettySize=auto;html=1;exitX=0.5;exitY=1;exitDx=0;exitDy=0;" edge="1" parent="1" source="wTJd-Y5oXOGYDvmJ6Plj-8" target="wTJd-Y5oXOGYDvmJ6Plj-9">
          <mxGeometry relative="1" as="geometry" />
        </mxCell>
        <mxCell id="wTJd-Y5oXOGYDvmJ6Plj-8" value="" style="shape=image;html=1;verticalAlign=top;verticalLabelPosition=bottom;labelBackgroundColor=#ffffff;imageAspect=0;aspect=fixed;image=https://cdn1.iconfinder.com/data/icons/business-and-finance-20/200/vector_65_02-128.png" vertex="1" parent="1">
          <mxGeometry x="200" y="440" width="70" height="70" as="geometry" />
        </mxCell>
        <mxCell id="wTJd-Y5oXOGYDvmJ6Plj-9" value="" style="shape=image;html=1;verticalAlign=top;verticalLabelPosition=bottom;labelBackgroundColor=#ffffff;imageAspect=0;aspect=fixed;image=https://cdn1.iconfinder.com/data/icons/business-and-finance-20/200/vector_65_02-128.png" vertex="1" parent="1">
          <mxGeometry x="130" y="560" width="70" height="70" as="geometry" />
        </mxCell>
        <mxCell id="wTJd-Y5oXOGYDvmJ6Plj-10" value="" style="shape=image;html=1;verticalAlign=top;verticalLabelPosition=bottom;labelBackgroundColor=#ffffff;imageAspect=0;aspect=fixed;image=https://cdn1.iconfinder.com/data/icons/business-and-finance-20/200/vector_65_02-128.png" vertex="1" parent="1">
          <mxGeometry x="285" y="560" width="70" height="70" as="geometry" />
        </mxCell>
        <mxCell id="wTJd-Y5oXOGYDvmJ6Plj-11" value="" style="image;sketch=0;aspect=fixed;html=1;points=[];align=center;fontSize=12;image=img/lib/mscae/Person.svg;" vertex="1" parent="1">
          <mxGeometry x="470" y="570" width="37" height="50" as="geometry" />
        </mxCell>
      </root>
    </mxGraphModel>
  </diagram>
</mxfile>
